<?xml version="1.0" encoding="utf-8"?>
<!-- Generator: Adobe Illustrator 16.0.0, SVG Export Plug-In . SVG Version: 6.00 Build 0)  -->
<!DOCTYPE svg PUBLIC "-//W3C//DTD SVG 1.1//EN" "http://www.w3.org/Graphics/SVG/1.1/DTD/svg11.dtd">
<svg version="1.1" id="Layer_1" xmlns="http://www.w3.org/2000/svg" xmlns:xlink="http://www.w3.org/1999/xlink" x="0px" y="0px"
	 width="282.708px" height="141.036px" viewBox="0 0 282.708 141.036" enable-background="new 0 0 282.708 141.036"
	 xml:space="preserve">
<path fill="#231F20" d="M66.305,60.537c0.128-0.199,0.264-0.392,0.404-0.584c0.227-0.348,0.665-1.603,1.228-1.518
	c1.049,0.169-0.396,1.816-0.563,2.103c-0.419,0.718-2.296,6.835-3.725,5.232c-0.501-0.566,0.078-1.279,0.441-1.723
	c0.53-0.645,0.951-1.232,1.255-2.027c-0.022,0.038-0.039,0.082-0.063,0.12C65.579,61.535,65.942,61.042,66.305,60.537L66.305,60.537
	z"/>
<path fill="#231F20" d="M79.368,42.283c-0.361,5.812-1.959,11.325-4.709,16.38c-2.331,4.324-5.421,8.118-9.163,11.301
	c-2.547,2.186-5.359,4.021-8.364,5.494c-0.535,0.26-1.185,0.035-1.445-0.496c-0.265-0.535-0.038-1.198,0.501-1.453
	c2.832-1.387,5.499-3.125,7.901-5.176c3.544-3.033,6.457-6.621,8.672-10.694c2.595-4.796,4.093-10.001,4.439-15.49
	c0.26-3.987-0.116-7.873-1.04-11.556c-0.005-0.004-0.005-0.009-0.005-0.009c-0.039-0.072-0.38-0.699-0.881-1.243
	c-1.362-1.449-1.959-2.07-1.959-2.07c-0.135-0.125-2.855-2.465-4.295-2.388c-2.571,0.121,2.976,4.285,2.976,4.285
	c2.032,1.984,2.022,3.929,0.742,6.563c-0.318,0.655-2.061-1.396-2.061-1.396c-1.204-1.444-0.015-2.128-3.982-4.194
	c-3.968-2.046,0.034,2.095,0.034,2.095c0.448,0.751,0.198-0.352,2.383,4.194c2.196,4.536,3.284,1.646,4.204,1.367
	c0.404-0.135,5.123-0.077-0.385,5.85c-1.637,1.758-2.326,6.635-2.326,6.635c-0.559,3-5.002,9.746-5.908,11.06
	c-0.698,1.001-2.518,2.937-2.518,2.937c-8.238,9.038-8.046,4.232-8.046,4.232s-0.14-1.512,0.14-2.359
	c0.284-0.842-0.183-1.945-0.183-1.945c-0.25-0.64-0.65-3.727-0.154-5.739c0.92-3.722,1.088-5.976,1.088-5.976
	c0.202-1.439-1.666-1.858-1.878-2.836c-0.568-2.6,1.161-2.089,1.517-3.067c0.361-0.992,0.299-2.253-1.324-1.064
	c-1.122,0.824-2.489-0.322-2.489-0.322c-0.79-1.107-2.21,0.024-2.21,0.024c-2.167,2.095-5.735,0.703-8.065,0
	c-0.688-0.207-0.963-2.484-0.963-2.484c-1.647-3.597-1.815-6.674-1.662-7.059c0.631-1.618,0.453-1.801,0.515-3.274
	c0-0.125,0.024-0.241,0.053-0.361c0.298-1.213,1.757-1.757,1.757-1.757c0.616-0.236,1.647-1.368,1.94-1.998
	c1.248-2.677,7.882-3.669,7.882-3.669c1.83-0.183,2.239,0.544,2.615,0.973c1.748,1.916,4.28,2.764,5.186,1.709
	c0.91-1.054,3.312-0.342,3.312-0.342c1.483-0.183,0.029-2.07,0.077-3.149c0.062-1.079-0.602-1.396-0.79-2.634
	c-0.188-1.228-2.253,3.64-3.27,2.331c-1.136-1.435-1.863-3.66-2.244-3.949c-0.371-0.303-1.868-0.216-2.046-0.12
	c-0.173,0.106-0.337,0.328-0.342,0.554c-0.02,0.202,0.905,0.669,1.261,0.978c0.356,0.303,0.227,0.419,0.597,0.929
	c0.366,0.496,0.318,0.853,0.318,0.853c-0.014,0.352-0.246-0.318-0.192,0.293c0.033,0.299-0.25,0.192-0.284,0.429
	c-0.039,0.246-0.164,0.183-0.405,0.371c-0.192,0.145-0.125-0.491-0.135-0.549l0.063-0.562c0.14-0.703-0.771-0.708-1.223-1.166
	c-0.453-0.467-0.535-0.337-0.915-0.674c-0.371-0.342-0.708-0.293-0.78-0.293c-0.062,0-1.011,0.221-1.011,0.221
	c-1.363,0.313-1.17,1.17-1.936,1.873c-0.761,0.693-0.78,0.929-1.401,1.396c-0.64,0.467-1.984,0.53-3.072,0.231
	c-1.093-0.293-2.065-0.332-2.427-3.048c-0.371-2.706,0.414-1.079,1.541-1.762c1.137-0.684,0.843,0.404,2.147,1.204
	c1.319,0.794,1.137-0.818,1.209-2.402c0.077-1.58,1.064-1.782,1.974-2.976c0.905-1.175,1.396-1.261,2.412-1.959
	c1.011-0.684,1.025-1.05,1.054-1.656c0.02-0.607-0.573-0.881-1.449-0.308c-0.886,0.563-1.888,1.131-2.413-0.857
	c-0.525-1.965,2.446-2.793,3.289-2.639c0.853,0.164,2.98,1.95,2.663,0.847c-0.313-1.117-0.809-1.608-0.809-1.608
	c-2.003-1.849-2.952-3.015-3.328-3.742V3.411C47.023,2.8,44.61,2.4,42.126,2.241c-0.813-0.053-1.623-0.077-2.427-0.077
	c-4.401,0-8.647,0.77-12.601,2.19c-0.535,0.559,0.399,0.308,0.058,1.107c-0.429,0.997-2.205,0.794-2.985,0.876
	c-0.761,0.106-0.905,0.222-1.666,0.192c-0.111-0.009-0.217-0.014-0.313-0.014c-0.395,0.207-0.78,0.424-1.165,0.645
	c-0.034,0.058-0.063,0.116-0.096,0.183c-0.419,0.881-0.679,0.881-1.074,1.107c-0.39,0.25-0.506,0.804-0.053,1.151
	c0.448,0.352,0.64,0.034,1.16-0.193c0.525-0.25,1.064-0.731,1.994-1.463c0.92-0.718,2.051-0.275,2.032,0.226
	c-0.019,0.506,0.284,0.958-0.27,3.202c-0.708,2.836-3.645,3.722-3.645,3.722s-1.185,0.9-1.95,1.011
	c-2.908,0.433-4.362,1.767-5.225,2.793c-0.732,0.867-0.611,0.905-0.91,1.733c-0.043,0.106,0.168,2.21-2.735,1.642
	c-0.843-0.168-1.007,1.021-1.007,1.021c0.039,4.521-0.967,4.738-0.967,4.738c-0.477-0.024-1.522-1.863-0.617-4.906
	c0.029-0.072,0.039-0.14,0.063-0.203c0.78-2.788-0.034-2.46-0.034-2.46s-0.164,0.062-0.385,0.279
	c-0.169,0.159-0.376,0.405-0.578,0.771c-0.13,0.257-0.208,0.503-0.26,0.743c-0.13,0.602-0.116,1.17-0.506,1.714
	c-0.775,1.079-1.136,1.623-1.276,2.73c-0.082,0.65-0.077,1.657-0.106,2.437c-0.038,0.771-0.274,4.079,0.159,4.873
	c0.395,0.732,1.228,0.881,1.228,0.881s1.06,0.202,2.533,0.958c2.726,1.353,2.672,2.938,3.385,4.247
	c0.717,1.319,1.839,0.732,3.582,2.855c1.738,2.114,1.787,3.51,5.388,5.364c4.449,2.176,4.035,4.285,3.929,4.863
	c-0.11,0.597-0.371,0.992-0.881,1.416c-0.848,0.712-0.944,0.987-1.319,3.659c-0.38,2.672-0.26,2.677-1.897,2.205
	c-1.646-0.443-2.138,1.965-2.138,1.965l-0.337,1.772c0,0-0.308,1.266-0.333,1.651c-0.014,0.375-0.216,1.912,0.111,3.202
	c0.323,1.295,4.329,2.903,4.815,3.804c0.496,0.905-0.91,0.722-2.292-0.228c-1.373-0.943-2.745-1.535-3.366-1.955
	c-0.621-0.409-2.34-2.022-3.336-2.576c-0.997-0.559-1.069-1.839-1.791-2.769c-0.732-0.929-1.208-1.724-1.3-2.494
	c-0.091-0.775-0.688-1.695-0.915-2.47c-0.211-0.78-0.828-2.215-1.021-2.745c-0.192-0.53-0.799-2.2-0.905-2.595
	c-0.111-0.399-0.298-0.992-0.448-1.771c-0.154-0.785-1.469-2.639-2.34-3.375c-5.489-4.613-0.14-11.388,0.043-11.686
	c0.265-0.424,0.848-0.688,0.02-1.507c-0.217-0.207-1.373-1.699-1.714-2.225c-0.207-0.327-0.486-0.91-0.664-1.564
	c-0.27,1.444-0.453,2.927-0.549,4.43c-0.534,8.359,1.743,16.785,6.433,23.738c0.563,0.693,1.545,2.147,2.917,4.353
	c0.862,1.382,1.392,2.234,1.714,2.788c0.091,0.164,0.231,0.39,0.231,0.39L13.5,68.597c7.92,13.534,7.92,27.431,7.906,35.009
	c-0.005,2.096-0.005,4.242,0.241,4.786c1.584,1.551,17.208,1.638,30.85,0.817c0.592-0.033,1.112,0.424,1.146,1.008
	c0.039,0.602-0.423,1.121-1.011,1.164c-0.087,0.006-7.675,0.438-15.379,0.502c-16.168,0.115-17.049-1.557-17.512-2.457
	c-0.481-0.904-0.506-2.536-0.5-5.82c0.019-7.555,0.033-21.531-8.147-34.855c-1.055-1.733-3.284-5.34-4.156-6.38L6.9,62.328
	l-0.024-0.043C1.912,54.937-0.51,46.025,0.063,37.18C1.472,15.324,20.404-1.336,42.264,0.084
	C64.139,1.5,80.779,20.428,79.368,42.283z"/>
<path fill="#231F20" d="M35.535,3.297c0,0-2.14-0.24-1.443,1.778c0.347,1.017-0.495,0.949-0.959,1.119
	c-0.46,0.178-0.928,0.353-1.131,0.619c-0.205,0.242-0.68,0.613-0.892,1.106c-0.227,0.517-1.202,2.617,1.698,1.764
	c0,0,1.525-0.551,2.492-1.045c0.698-0.354,3.013-2.091,4.218-2.596c0.743-0.321,2.859-1.939-0.555-2.301
	C35.804,3.393,35.535,3.297,35.535,3.297L35.535,3.297z"/>
<path fill="#231F20" d="M21.645,113.799c0,0-2.063,1.084,0.111,2.228c0,0,31.689,1.601,32.292-0.444c0,0,0.235-1.35-1.622-1.401
	C52.427,114.18,26.504,113.631,21.645,113.799L21.645,113.799z"/>
<path fill="#231F20" d="M21.616,117.97c0,0-2.063,1.088,0.112,2.237c0,0,31.691,1.588,32.285-0.465c0,0,0.241-1.346-1.612-1.384
	C52.4,118.36,26.48,117.797,21.616,117.97L21.616,117.97z"/>
<path fill="#231F20" d="M21.591,122.165c0,0-2.071,1.065,0.109,2.209c0,0,31.691,1.602,32.285-0.457c0,0,0.235-1.34-1.618-1.393
	C52.367,122.524,26.449,121.969,21.591,122.165L21.591,122.165z"/>
<path fill="#231F20" d="M21.561,126.322c0,0-2.065,1.078,0.106,2.22c0,0,31.693,1.602,32.289-0.449c0,0,0.233-1.348-1.62-1.389
	C52.336,126.704,26.421,126.142,21.561,126.322L21.561,126.322z"/>
<path fill="#231F20" d="M36.248,141.036c0.933,0.039,2.715-0.191,3.743-1.021l3.61-0.214l0.234-1.434l2.787-3.468
	c0,0,4.555-2.776,4.512-3.567c0,0-7.299,0.07-14.745-0.154c-7.441,0.016-14.743-0.229-14.743-0.229
	c-0.073,0.777,4.411,3.691,4.411,3.691l2.693,3.549l0.189,1.43l3.602,0.322C33.538,140.79,35.326,141.043,36.248,141.036
	L36.248,141.036z"/>
<path fill="#231F20" d="M7.312,20.745c-0.294,0.496-0.578,1.001-0.843,1.512c0.053-0.241,0.13-0.486,0.265-0.742
	C6.937,21.15,7.144,20.904,7.312,20.745z"/>
<path fill="#231F20" d="M33.821,83.363c0.046,2.61,1.696,3.691,3.624,3.691c1.385,0,2.241-0.24,2.944-0.526l0.348,1.361
	c-0.683,0.298-1.865,0.677-3.556,0.677c-3.247,0-5.223-2.178-5.223-5.358c0-3.229,1.91-5.756,5.009-5.756
	c3.463,0,4.364,3.055,4.364,5.012c0,0.395-0.018,0.701-0.061,0.926L33.821,83.363L33.821,83.363z M39.465,81.978
	c0.026-1.209-0.512-3.136-2.659-3.136c-1.969,0-2.807,1.793-2.959,3.136H39.465L39.465,81.978z"/>
<path fill="#231F20" d="M43.722,80.596c0-1.118-0.02-2.002-0.089-2.879h1.712l0.109,1.734h0.048
	c0.525-0.986,1.749-1.968,3.503-1.968c1.476,0,3.758,0.876,3.758,4.519v6.336h-1.925v-6.117c0-1.715-0.64-3.159-2.464-3.159
	c-1.25,0-2.24,0.899-2.589,1.976c-0.086,0.244-0.123,0.584-0.123,0.895v6.406h-1.94V80.596L43.722,80.596z"/>
<path fill="#231F20" d="M64.985,86.782c0,2.461-0.505,3.93-1.511,4.87c-1.05,0.949-2.542,1.279-3.876,1.279
	c-1.279,0-2.685-0.312-3.539-0.88l0.483-1.491c0.699,0.458,1.8,0.853,3.116,0.853c1.974,0,3.426-1.037,3.426-3.724v-1.162h-0.047
	c-0.569,0.976-1.733,1.772-3.378,1.772c-2.631,0-4.52-2.237-4.52-5.211c0-3.594,2.344-5.605,4.805-5.605
	c1.843,0,2.833,0.939,3.314,1.825h0.039l0.068-1.593h1.713c-0.064,0.75-0.092,1.607-0.092,2.904L64.985,86.782L64.985,86.782z
	 M63.058,81.897c0-0.312-0.023-0.596-0.107-0.859c-0.357-1.145-1.276-2.058-2.703-2.058c-1.843,0-3.156,1.554-3.156,4.028
	c0,2.06,1.073,3.822,3.138,3.822c1.207,0,2.278-0.75,2.679-2.004c0.102-0.305,0.15-0.676,0.15-1.023L63.058,81.897L63.058,81.897z"
	/>
<path fill="#231F20" d="M69.088,75.77c-0.715,0-1.204-0.578-1.204-1.252c0-0.684,0.509-1.23,1.25-1.23
	c0.751,0,1.234,0.547,1.234,1.23c0,0.674-0.482,1.252-1.257,1.252H69.088L69.088,75.77z M68.173,88.338V77.717h1.93v10.621H68.173
	L68.173,88.338z"/>
<path fill="#231F20" d="M73.304,80.596c0-1.118-0.021-2.002-0.085-2.879h1.713l0.105,1.734h0.05
	c0.524-0.986,1.755-1.968,3.507-1.968c1.469,0,3.757,0.876,3.757,4.519v6.336h-1.934v-6.117c0-1.715-0.64-3.159-2.456-3.159
	c-1.251,0-2.236,0.899-2.591,1.976c-0.087,0.244-0.13,0.584-0.13,0.895v6.406h-1.935L73.304,80.596L73.304,80.596z"/>
<path fill="#231F20" d="M86.589,83.363c0.043,2.61,1.691,3.691,3.618,3.691c1.384,0,2.236-0.24,2.938-0.526l0.356,1.361
	c-0.68,0.298-1.864,0.677-3.563,0.677c-3.239,0-5.224-2.178-5.224-5.358c0-3.229,1.917-5.756,5.005-5.756
	c3.467,0,4.37,3.055,4.37,5.012c0,0.395-0.021,0.701-0.064,0.926L86.589,83.363L86.589,83.363z M92.226,81.978
	c0.028-1.209-0.5-3.136-2.658-3.136c-1.967,0-2.807,1.793-2.961,3.136H92.226L92.226,81.978z"/>
<path fill="#231F20" d="M97.582,83.363c0.048,2.61,1.694,3.691,3.622,3.691c1.377,0,2.241-0.24,2.948-0.526l0.345,1.361
	c-0.682,0.298-1.861,0.677-3.562,0.677c-3.241,0-5.222-2.178-5.222-5.358c0-3.229,1.917-5.756,5-5.756
	c3.476,0,4.376,3.055,4.376,5.012c0,0.395-0.025,0.701-0.062,0.926L97.582,83.363L97.582,83.363z M103.226,81.978
	c0.021-1.209-0.514-3.136-2.661-3.136c-1.975,0-2.811,1.793-2.963,3.136H103.226L103.226,81.978z"/>
<path fill="#231F20" d="M107.505,81.038c0-1.25-0.023-2.332-0.092-3.32h1.69l0.083,2.09h0.075c0.48-1.422,1.667-2.322,2.963-2.322
	c0.197,0,0.347,0.016,0.52,0.055v1.816c-0.224-0.031-0.415-0.046-0.678-0.046c-1.361,0-2.325,1.013-2.59,2.446
	c-0.038,0.287-0.069,0.6-0.069,0.927v5.655h-1.925L107.505,81.038L107.505,81.038z"/>
<path fill="#231F20" d="M114.388,86.387c0.598,0.359,1.61,0.748,2.57,0.748c1.386,0,2.044-0.688,2.044-1.577
	c0-0.921-0.553-1.419-1.948-1.964c-1.928-0.691-2.832-1.729-2.832-3c0-1.711,1.4-3.111,3.663-3.111c1.069,0,2.01,0.28,2.586,0.65
	l-0.461,1.382c-0.407-0.231-1.185-0.61-2.175-0.61c-1.133,0-1.745,0.656-1.745,1.448c0,0.894,0.612,1.297,1.992,1.815
	c1.812,0.688,2.786,1.602,2.786,3.209c0,1.891-1.473,3.207-3.951,3.207c-1.168,0-2.238-0.316-2.986-0.75L114.388,86.387
	L114.388,86.387z"/>
<path fill="#231F20" d="M128.773,77.717l1.417,5.373c0.287,1.203,0.58,2.307,0.775,3.408h0.066c0.233-1.069,0.59-2.205,0.939-3.379
	l1.734-5.402h1.626l1.642,5.312c0.404,1.265,0.71,2.4,0.943,3.47h0.073c0.18-1.068,0.454-2.195,0.806-3.439l1.518-5.342h1.912
	l-3.429,10.621h-1.758l-1.62-5.062c-0.368-1.199-0.687-2.26-0.939-3.516h-0.052c-0.258,1.279-0.593,2.394-0.962,3.539l-1.711,5.041
	h-1.749l-3.214-10.621h1.983V77.717z"/>
<path fill="#231F20" d="M145.077,75.77c-0.728,0-1.205-0.578-1.205-1.252c0-0.684,0.504-1.23,1.242-1.23
	c0.76,0,1.238,0.547,1.238,1.23c0,0.674-0.479,1.252-1.255,1.252H145.077L145.077,75.77z M144.15,88.338V77.717h1.933v10.621H144.15
	L144.15,88.338z"/>
<path fill="#231F20" d="M151.618,75.174v2.543h2.76v1.47h-2.76v5.731c0,1.33,0.364,2.064,1.444,2.064c0.53,0,0.842-0.05,1.117-0.132
	l0.093,1.466c-0.368,0.135-0.964,0.27-1.706,0.27c-0.897,0-1.631-0.317-2.085-0.81c-0.527-0.599-0.752-1.53-0.752-2.792v-5.799
	h-1.643v-1.471h1.643V75.77L151.618,75.174L151.618,75.174z"/>
<path fill="#231F20" d="M156.549,72.756h1.933v6.634h0.044c0.312-0.55,0.788-1.058,1.387-1.369c0.571-0.343,1.256-0.538,1.974-0.538
	c1.432,0,3.708,0.876,3.708,4.543v6.311h-1.934v-6.1c0-1.732-0.629-3.162-2.451-3.162c-1.254,0-2.215,0.885-2.592,1.938
	c-0.115,0.267-0.138,0.546-0.138,0.917v6.405h-1.933V72.756H156.549z"/>
<path fill="#231F20" d="M173.059,88.586c-2.857,0-5.094-2.11-5.094-5.467c0-3.557,2.346-5.635,5.262-5.635
	c3.059,0,5.126,2.21,5.126,5.436c0,3.951-2.747,5.666-5.276,5.666H173.059L173.059,88.586z M173.131,87.135
	c1.834,0,3.213-1.738,3.213-4.15c0-1.795-0.889-4.062-3.178-4.062c-2.263,0-3.25,2.115-3.25,4.136c0,2.321,1.32,4.077,3.188,4.077
	H173.131L173.131,87.135z"/>
<path fill="#231F20" d="M189.668,85.448c0,1.105,0.027,2.055,0.094,2.891h-1.713l-0.112-1.734h-0.041
	c-0.481,0.861-1.626,1.982-3.51,1.982c-1.677,0-3.669-0.938-3.669-4.662v-6.207h1.932v5.867c0,2.012,0.637,3.398,2.374,3.398
	c1.292,0,2.19-0.902,2.54-1.779c0.111-0.26,0.178-0.609,0.178-0.99v-6.498h1.93v7.732H189.668z"/>
<path fill="#231F20" d="M195.196,75.174v2.543h2.77v1.47h-2.77v5.731c0,1.33,0.383,2.064,1.449,2.064
	c0.534,0,0.848-0.05,1.126-0.132l0.091,1.466c-0.369,0.135-0.974,0.27-1.712,0.27c-0.905,0-1.633-0.317-2.094-0.81
	c-0.519-0.599-0.731-1.53-0.731-2.792v-5.799h-1.668v-1.471h1.668V75.77L195.196,75.174L195.196,75.174z"/>
<path fill="#231F20" d="M204.792,72.756h1.933v6.656h0.05c0.678-1.184,1.914-1.929,3.625-1.929c2.633,0,4.475,2.187,4.475,5.394
	c0,3.828-2.416,5.709-4.793,5.709c-1.523,0-2.729-0.592-3.558-1.992h-0.04l-0.109,1.744h-1.672c0.067-0.723,0.092-1.784,0.092-2.742
	v-12.84H204.792z M206.724,84.084c0,0.242,0.026,0.486,0.062,0.707c0.373,1.338,1.521,2.262,2.899,2.262
	c2.038,0,3.224-1.656,3.224-4.092c0-2.149-1.095-3.975-3.156-3.975c-1.322,0-2.549,0.924-2.922,2.381
	c-0.058,0.233-0.106,0.5-0.106,0.803V84.084L206.724,84.084z"/>
<path fill="#231F20" d="M221.638,88.586c-2.864,0-5.104-2.11-5.104-5.467c0-3.557,2.359-5.635,5.271-5.635
	c3.041,0,5.109,2.21,5.109,5.436c0,3.951-2.738,5.666-5.271,5.666H221.638L221.638,88.586z M221.692,87.135
	c1.844,0,3.239-1.738,3.239-4.15c0-1.795-0.909-4.062-3.198-4.062c-2.259,0-3.242,2.115-3.242,4.136
	c0,2.321,1.311,4.077,3.182,4.077H221.692L221.692,87.135z"/>
<path fill="#231F20" d="M229.374,81.038c0-1.25-0.021-2.332-0.088-3.32h1.689l0.091,2.09h0.056c0.49-1.422,1.67-2.322,2.967-2.322
	c0.201,0,0.354,0.016,0.541,0.055v1.816c-0.229-0.031-0.414-0.046-0.682-0.046c-1.371,0-2.336,1.013-2.594,2.446
	c-0.055,0.287-0.074,0.6-0.074,0.927v5.655h-1.929L229.374,81.038L229.374,81.038z"/>
<path fill="#231F20" d="M245.57,72.756v12.838c0,0.959,0.027,2.021,0.097,2.742h-1.74l-0.09-1.838h-0.041
	c-0.596,1.19-1.865,2.086-3.606,2.086c-2.56,0-4.562-2.174-4.562-5.393c-0.015-3.557,2.199-5.708,4.764-5.708
	c1.654,0,2.744,0.761,3.218,1.591h0.034v-6.318H245.57L245.57,72.756z M243.643,82.043c0-0.265-0.034-0.57-0.098-0.83
	c-0.277-1.207-1.332-2.226-2.781-2.226c-1.997,0-3.184,1.771-3.184,4.087c0,2.178,1.075,3.947,3.137,3.947
	c1.296,0,2.482-0.868,2.828-2.298c0.062-0.261,0.098-0.532,0.098-0.833V82.043L243.643,82.043z"/>
<path fill="#231F20" d="M249.881,83.363c0.035,2.61,1.679,3.691,3.604,3.691c1.394,0,2.246-0.24,2.953-0.526l0.341,1.361
	c-0.674,0.298-1.859,0.677-3.551,0.677c-3.258,0-5.221-2.178-5.221-5.358c0-3.229,1.906-5.756,5.005-5.756
	c3.461,0,4.362,3.055,4.362,5.012c0,0.395-0.015,0.701-0.063,0.926L249.881,83.363L249.881,83.363z M255.511,81.978
	c0.028-1.209-0.5-3.136-2.654-3.136c-1.978,0-2.812,1.793-2.962,3.136H255.511L255.511,81.978z"/>
<path fill="#231F20" d="M259.793,81.038c0-1.25-0.026-2.332-0.096-3.32h1.705l0.084,2.09h0.062c0.478-1.422,1.664-2.322,2.959-2.322
	c0.203,0,0.349,0.016,0.535,0.055v1.816c-0.223-0.031-0.418-0.046-0.687-0.046c-1.366,0-2.331,1.013-2.587,2.446
	c-0.05,0.287-0.07,0.6-0.07,0.927v5.655h-1.935L259.793,81.038L259.793,81.038z"/>
<path fill="#231F20" d="M266.685,86.387c0.591,0.359,1.604,0.748,2.567,0.748c1.387,0,2.037-0.688,2.037-1.577
	c0-0.921-0.539-1.419-1.947-1.964c-1.926-0.691-2.828-1.729-2.828-3c0-1.711,1.402-3.111,3.66-3.111c1.074,0,2.016,0.28,2.595,0.65
	l-0.459,1.382c-0.425-0.231-1.181-0.61-2.179-0.61c-1.142,0-1.752,0.656-1.752,1.448c0,0.894,0.61,1.297,1.994,1.815
	c1.815,0.688,2.78,1.602,2.78,3.209c0,1.891-1.461,3.207-3.952,3.207c-1.166,0-2.23-0.316-2.973-0.75L266.685,86.387L266.685,86.387
	z"/>
<path fill="#231F20" d="M52.062,94.193c-0.725,0-1.206-0.579-1.206-1.261c0-0.684,0.51-1.225,1.254-1.225
	c0.744,0,1.23,0.541,1.23,1.225s-0.486,1.261-1.254,1.261H52.062L52.062,94.193z M51.144,106.754V96.135h1.936v10.621h-1.936
	V106.754z"/>
<path fill="#231F20" d="M56.272,99.016c0-1.121-0.014-1.999-0.079-2.881h1.711l0.108,1.732h0.044
	c0.532-0.988,1.754-1.969,3.514-1.969c1.472,0,3.752,0.87,3.752,4.52v6.338h-1.937v-6.118c0-1.714-0.63-3.162-2.451-3.162
	c-1.25,0-2.24,0.892-2.593,1.974c-0.085,0.25-0.132,0.594-0.132,0.902v6.404h-1.937V99.016L56.272,99.016z"/>
<path fill="#231F20" d="M77.551,105.202c0,2.455-0.512,3.934-1.517,4.867c-1.057,0.939-2.549,1.279-3.883,1.279
	c-1.279,0-2.678-0.307-3.536-0.877l0.482-1.497c0.701,0.452,1.798,0.856,3.113,0.856c1.978,0,3.425-1.031,3.425-3.728v-1.165h-0.043
	c-0.571,0.98-1.729,1.777-3.381,1.777c-2.631,0-4.517-2.239-4.517-5.207c0-3.6,2.348-5.61,4.807-5.61
	c1.844,0,2.832,0.942,3.312,1.815h0.042l0.063-1.58h1.72c-0.067,0.746-0.086,1.598-0.086,2.9v6.168H77.551z M75.617,100.305
	c0-0.305-0.025-0.588-0.109-0.855c-0.351-1.139-1.276-2.062-2.698-2.062c-1.844,0-3.164,1.557-3.164,4.035
	c0,2.074,1.072,3.82,3.136,3.82c1.213,0,2.288-0.752,2.681-2c0.112-0.301,0.155-0.679,0.155-1.029L75.617,100.305L75.617,100.305z"
	/>
<path fill="#231F20" d="M81.827,101.77c0.044,2.607,1.692,3.691,3.62,3.691c1.388,0,2.24-0.23,2.939-0.522l0.355,1.353
	c-0.681,0.312-1.866,0.684-3.559,0.684c-3.246,0-5.224-2.176-5.224-5.35c0-3.229,1.913-5.75,4.998-5.75
	c3.474,0,4.372,3.049,4.372,5.008c0,0.394-0.021,0.691-0.064,0.918L81.827,101.77L81.827,101.77z M87.464,100.385
	c0.025-1.196-0.499-3.135-2.657-3.135c-1.967,0-2.806,1.801-2.96,3.135H87.464L87.464,100.385z M87.93,91.708l-2.681,3.137h-1.354
	l1.927-3.137H87.93L87.93,91.708z"/>
<path fill="#231F20" d="M91.726,99.016c0-1.121-0.027-1.999-0.089-2.881h1.709l0.114,1.732h0.041
	c0.524-0.988,1.761-1.969,3.513-1.969c1.467,0,3.753,0.87,3.753,4.52v6.338h-1.928v-6.118c0-1.714-0.635-3.162-2.462-3.162
	c-1.252,0-2.239,0.892-2.591,1.974c-0.096,0.25-0.132,0.594-0.132,0.902v6.404h-1.928V99.016L91.726,99.016z"/>
<path fill="#231F20" d="M104.832,94.193c-0.736,0-1.211-0.579-1.211-1.261c0-0.684,0.503-1.225,1.25-1.225
	c0.746,0,1.224,0.541,1.224,1.225s-0.478,1.261-1.249,1.261H104.832L104.832,94.193z M103.905,106.754V96.135h1.928v10.621h-1.928
	V106.754z"/>
<path fill="#231F20" d="M110.147,101.77c0.032,2.607,1.681,3.691,3.607,3.691c1.395,0,2.243-0.23,2.951-0.522l0.349,1.353
	c-0.692,0.312-1.864,0.684-3.56,0.684c-3.251,0-5.222-2.176-5.222-5.35c0-3.229,1.907-5.75,5.011-5.75
	c3.458,0,4.358,3.049,4.358,5.008c0,0.394-0.023,0.691-0.061,0.918L110.147,101.77L110.147,101.77z M115.777,100.385
	c0.027-1.196-0.503-3.135-2.65-3.135c-1.983,0-2.817,1.801-2.972,3.135H115.777L115.777,100.385z"/>
<path fill="#231F20" d="M128.928,103.868c0,1.096,0.018,2.053,0.082,2.889h-1.704l-0.11-1.738h-0.048
	c-0.482,0.867-1.619,1.986-3.51,1.986c-1.675,0-3.667-0.949-3.667-4.662v-6.207h1.937v5.867c0,2.017,0.628,3.387,2.366,3.387
	c1.291,0,2.191-0.898,2.542-1.768c0.112-0.269,0.172-0.613,0.172-0.992v-6.494h1.941L128.928,103.868L128.928,103.868z"/>
<path fill="#231F20" d="M132.15,99.45c0-1.256-0.026-2.322-0.091-3.314h1.694l0.087,2.082h0.062
	c0.483-1.426,1.668-2.318,2.967-2.318c0.197,0,0.346,0.021,0.53,0.066v1.789c-0.219-0.023-0.418-0.041-0.68-0.041
	c-1.368,0-2.334,1.033-2.595,2.457c-0.042,0.289-0.064,0.586-0.064,0.916v5.668h-1.937L132.15,99.45L132.15,99.45z"/>
<path fill="#231F20" d="M139.045,104.799c0.591,0.357,1.604,0.75,2.568,0.75c1.384,0,2.035-0.684,2.035-1.586
	c0-0.916-0.546-1.426-1.957-1.945c-1.928-0.706-2.828-1.729-2.828-3.002c0-1.717,1.412-3.117,3.662-3.117
	c1.087,0,2.028,0.282,2.595,0.662l-0.459,1.378c-0.412-0.239-1.186-0.616-2.168-0.616c-1.151,0-1.758,0.657-1.758,1.445
	c0,0.898,0.607,1.301,1.991,1.812c1.829,0.695,2.789,1.609,2.789,3.215c0,1.888-1.47,3.207-3.949,3.207
	c-1.168,0-2.232-0.305-2.983-0.748L139.045,104.799L139.045,104.799z"/>
<path fill="#231F20" d="M152.386,104.799c0.587,0.357,1.604,0.75,2.567,0.75c1.379,0,2.045-0.684,2.045-1.586
	c0-0.916-0.549-1.426-1.957-1.945c-1.926-0.706-2.828-1.729-2.828-3.002c0-1.717,1.406-3.117,3.668-3.117
	c1.063,0,2.021,0.282,2.582,0.662l-0.461,1.378c-0.41-0.239-1.184-0.616-2.172-0.616c-1.14,0-1.75,0.657-1.75,1.445
	c0,0.898,0.61,1.301,1.996,1.812c1.826,0.695,2.795,1.609,2.795,3.215c0,1.888-1.483,3.207-3.959,3.207
	c-1.166,0-2.244-0.305-2.99-0.748L152.386,104.799L152.386,104.799z"/>
<path fill="#231F20" d="M168.825,104.213c0,0.916,0.047,1.82,0.149,2.541h-1.731l-0.174-1.334h-0.061
	c-0.577,0.834-1.733,1.582-3.258,1.582c-2.145,0-3.242-1.518-3.242-3.058c0-2.562,2.281-3.96,6.382-3.944v-0.229
	c0-0.873-0.231-2.475-2.417-2.449c-1.006,0-2.035,0.279-2.775,0.793l-0.443-1.3c0.875-0.556,2.172-0.919,3.514-0.919
	c3.273,0,4.057,2.219,4.057,4.335V104.213L168.825,104.213z M166.937,101.344c-2.106-0.055-4.497,0.322-4.497,2.39
	c0,1.271,0.844,1.838,1.807,1.838c1.395,0,2.295-0.868,2.61-1.774c0.062-0.191,0.08-0.418,0.08-0.618V101.344L166.937,101.344z"/>
<path fill="#231F20" d="M171.917,99.016c0-1.121-0.023-1.999-0.084-2.881h1.709l0.117,1.732h0.036
	c0.526-0.988,1.761-1.969,3.519-1.969c1.471,0,3.746,0.87,3.746,4.52v6.338h-1.936v-6.118c0-1.714-0.624-3.162-2.449-3.162
	c-1.256,0-2.238,0.892-2.597,1.974c-0.075,0.25-0.132,0.594-0.132,0.902v6.404h-1.93V99.016L171.917,99.016z"/>
<path fill="#231F20" d="M183.836,104.799c0.597,0.357,1.598,0.75,2.562,0.75c1.392,0,2.052-0.684,2.052-1.586
	c0-0.916-0.554-1.426-1.961-1.945c-1.926-0.706-2.822-1.729-2.822-3.002c0-1.717,1.397-3.117,3.658-3.117
	c1.075,0,2.026,0.282,2.592,0.662l-0.461,1.378c-0.418-0.239-1.194-0.616-2.17-0.616c-1.146,0-1.757,0.657-1.757,1.445
	c0,0.898,0.61,1.301,1.992,1.812c1.83,0.695,2.794,1.609,2.794,3.215c0,1.888-1.464,3.207-3.947,3.207
	c-1.166,0-2.246-0.305-2.986-0.748L183.836,104.799L183.836,104.799z"/>
<path fill="#231F20" d="M197.62,106.754v-9.151h-1.47v-1.47h1.47v-0.5c0-1.498,0.355-2.855,1.256-3.723
	c0.721-0.695,1.686-0.976,2.563-0.976c0.704,0,1.272,0.151,1.644,0.308l-0.246,1.491c-0.306-0.134-0.676-0.239-1.248-0.239
	c-1.618,0-2.062,1.445-2.062,3.072v0.566h2.568v1.469h-2.546v9.152H197.62L197.62,106.754z"/>
<path fill="#231F20" d="M203.874,99.45c0-1.256-0.014-2.322-0.086-3.314h1.689l0.089,2.082h0.069
	c0.478-1.426,1.67-2.318,2.953-2.318c0.209,0,0.359,0.021,0.527,0.066v1.789c-0.223-0.023-0.414-0.041-0.688-0.041
	c-1.352,0-2.316,1.033-2.572,2.457c-0.055,0.289-0.07,0.586-0.07,0.916v5.668h-1.927L203.874,99.45L203.874,99.45z"/>
<path fill="#231F20" d="M215.225,107.002c-2.854,0-5.089-2.104-5.089-5.467c0-3.556,2.344-5.638,5.262-5.638
	c3.043,0,5.11,2.218,5.11,5.444c0,3.943-2.734,5.66-5.262,5.66H215.225L215.225,107.002z M215.292,105.549
	c1.84,0,3.219-1.743,3.219-4.145c0-1.791-0.887-4.064-3.182-4.064c-2.252,0-3.236,2.107-3.236,4.132
	c0,2.325,1.303,4.077,3.174,4.077H215.292L215.292,105.549z"/>
<path fill="#231F20" d="M222.956,99.016c0-1.121-0.031-1.999-0.099-2.881h1.72l0.108,1.732h0.045
	c0.521-0.988,1.752-1.969,3.501-1.969c1.482,0,3.755,0.87,3.755,4.52v6.338h-1.935v-6.118c0-1.714-0.623-3.162-2.461-3.162
	c-1.24,0-2.23,0.892-2.577,1.974c-0.082,0.25-0.132,0.594-0.132,0.902v6.404h-1.928v-7.74H222.956z"/>
<path fill="#231F20" d="M237.37,93.594v2.541h2.764v1.469h-2.764v5.732c0,1.322,0.365,2.053,1.446,2.053
	c0.521,0,0.838-0.034,1.124-0.12l0.082,1.469c-0.368,0.132-0.964,0.267-1.706,0.267c-0.899,0-1.629-0.303-2.093-0.82
	c-0.52-0.594-0.747-1.523-0.747-2.785v-5.793h-1.646v-1.469h1.646v-1.942L237.37,93.594L237.37,93.594z"/>
<path fill="#231F20" d="M243.227,94.193c-0.729,0-1.214-0.579-1.214-1.261c0-0.684,0.513-1.225,1.255-1.225
	c0.75,0,1.232,0.541,1.232,1.225s-0.482,1.261-1.246,1.261H243.227L243.227,94.193z M242.303,106.754V96.135h1.927v10.621h-1.927
	V106.754z"/>
<path fill="#231F20" d="M248.543,101.77c0.035,2.607,1.679,3.691,3.627,3.691c1.371,0,2.229-0.23,2.932-0.522l0.354,1.353
	c-0.681,0.312-1.873,0.684-3.558,0.684c-3.25,0-5.226-2.176-5.226-5.35c0-3.229,1.906-5.75,5.013-5.75
	c3.458,0,4.354,3.049,4.354,5.008c0,0.394-0.015,0.691-0.063,0.918L248.543,101.77L248.543,101.77z M254.172,100.385
	c0.027-1.196-0.5-3.135-2.647-3.135c-1.989,0-2.81,1.801-2.96,3.135H254.172L254.172,100.385z M250.909,91.708l1.926,3.137h-1.352
	l-2.677-3.137H250.909L250.909,91.708z"/>
<path fill="#231F20" d="M258.456,99.45c0-1.256-0.02-2.322-0.09-3.314h1.699l0.092,2.082h0.061c0.479-1.426,1.67-2.318,2.957-2.318
	c0.197,0,0.357,0.021,0.529,0.066v1.789c-0.222-0.023-0.414-0.041-0.686-0.041c-1.354,0-2.323,1.033-2.579,2.457
	c-0.046,0.289-0.076,0.586-0.076,0.916v5.668h-1.927L258.456,99.45L258.456,99.45z"/>
<path fill="#231F20" d="M266.584,101.77c0.039,2.607,1.684,3.691,3.617,3.691c1.381,0,2.239-0.23,2.939-0.522l0.345,1.353
	c-0.677,0.312-1.864,0.684-3.549,0.684c-3.253,0-5.222-2.176-5.222-5.35c0-3.229,1.908-5.75,5-5.75c3.467,0,4.367,3.049,4.367,5.008
	c0,0.394-0.021,0.691-0.062,0.918L266.584,101.77L266.584,101.77z M272.219,100.385c0.021-1.196-0.506-3.135-2.654-3.135
	c-1.977,0-2.814,1.801-2.969,3.135H272.219L272.219,100.385z"/>
<path fill="#231F20" d="M276.219,104.799c0.582,0.357,1.596,0.75,2.558,0.75c1.394,0,2.044-0.684,2.044-1.586
	c0-0.916-0.553-1.426-1.953-1.945c-1.927-0.706-2.834-1.729-2.834-3.002c0-1.717,1.406-3.117,3.668-3.117
	c1.086,0,2.023,0.282,2.592,0.662l-0.463,1.378c-0.418-0.239-1.188-0.616-2.174-0.616c-1.141,0-1.76,0.657-1.76,1.445
	c0,0.898,0.619,1.301,2.004,1.812c1.824,0.695,2.786,1.609,2.786,3.215c0,1.888-1.468,3.207-3.951,3.207
	c-1.163,0-2.231-0.305-2.979-0.748L276.219,104.799L276.219,104.799z"/>
<path fill="#231F20" d="M237.922,126.103c-0.575,0.292-1.754,0.593-3.237,0.593c-3.444,0-6.039-2.188-6.039-6.214
	c0-3.864,2.612-6.44,6.407-6.44c1.498,0,2.48,0.336,2.896,0.555l-0.4,1.294c-0.584-0.295-1.436-0.515-2.449-0.515
	c-2.876,0-4.773,1.834-4.773,5.043c0,3.025,1.725,4.924,4.688,4.924c0.982,0,1.953-0.193,2.594-0.504L237.922,126.103
	L237.922,126.103z"/>
<path fill="#231F20" d="M245.688,124.383c0,0.765,0.033,1.51,0.124,2.115h-1.429l-0.154-1.119h-0.057
	c-0.469,0.699-1.428,1.315-2.688,1.315c-1.767,0-2.683-1.267-2.683-2.536c0-2.117,1.892-3.289,5.275-3.266v-0.182
	c0-0.721-0.187-2.061-1.988-2.032c-0.832,0-1.685,0.228-2.303,0.659l-0.365-1.084c0.732-0.45,1.795-0.758,2.9-0.758
	c2.721,0,3.366,1.842,3.366,3.598L245.688,124.383L245.688,124.383z M244.127,121.999c-1.738-0.028-3.723,0.269-3.723,1.984
	c0,1.049,0.691,1.52,1.483,1.52c1.165,0,1.911-0.725,2.163-1.457c0.055-0.164,0.076-0.346,0.076-0.514V121.999L244.127,121.999z"/>
<path fill="#231F20" d="M248.008,120.09c0-0.938-0.006-1.668-0.066-2.389h1.42l0.096,1.428h0.037
	c0.422-0.826,1.441-1.633,2.897-1.633c1.221,0,3.104,0.73,3.104,3.748v5.254H253.9v-5.074c0-1.42-0.524-2.612-2.022-2.612
	c-1.045,0-1.864,0.735-2.154,1.633c-0.069,0.195-0.11,0.487-0.11,0.744v5.31h-1.604V120.09L248.008,120.09z"/>
<path fill="#231F20" d="M264.051,124.383c0,0.765,0.041,1.51,0.125,2.115h-1.426l-0.153-1.119h-0.056
	c-0.474,0.699-1.431,1.315-2.685,1.315c-1.774,0-2.688-1.267-2.688-2.536c0-2.117,1.897-3.289,5.283-3.266v-0.182
	c0-0.721-0.195-2.061-1.998-2.032c-0.832,0-1.689,0.228-2.31,0.659l-0.358-1.084c0.728-0.45,1.801-0.758,2.909-0.758
	c2.711,0,3.356,1.842,3.356,3.598V124.383L264.051,124.383z M262.497,121.999c-1.752-0.028-3.732,0.269-3.732,1.984
	c0,1.049,0.697,1.52,1.488,1.52c1.166,0,1.906-0.725,2.164-1.457c0.047-0.164,0.08-0.346,0.08-0.514V121.999L262.497,121.999z"/>
<path fill="#231F20" d="M273.975,113.596v10.626c0,0.771,0.02,1.671,0.066,2.276h-1.44l-0.063-1.528h-0.033
	c-0.491,0.973-1.547,1.726-2.983,1.726c-2.118,0-3.776-1.804-3.776-4.471c-0.021-2.939,1.814-4.729,3.944-4.729
	c1.366,0,2.274,0.646,2.647,1.328h0.045v-5.229L273.975,113.596L273.975,113.596z M272.379,121.279c0-0.224-0.023-0.481-0.078-0.688
	c-0.233-0.998-1.106-1.836-2.309-1.836c-1.656,0-2.642,1.453-2.642,3.379c0,1.793,0.896,3.259,2.608,3.259
	c1.065,0,2.051-0.724,2.34-1.901c0.056-0.215,0.08-0.436,0.08-0.683V121.279L272.379,121.279z"/>
<path fill="#231F20" d="M282.583,124.383c0,0.765,0.035,1.51,0.125,2.115h-1.429l-0.146-1.119h-0.061
	c-0.475,0.699-1.439,1.315-2.689,1.315c-1.784,0-2.698-1.267-2.698-2.536c0-2.117,1.901-3.289,5.297-3.266v-0.182
	c0-0.721-0.194-2.061-1.998-2.032c-0.838,0-1.685,0.228-2.307,0.659l-0.368-1.084c0.729-0.45,1.797-0.758,2.912-0.758
	c2.709,0,3.359,1.842,3.359,3.598v3.289H282.583z M281.017,121.999c-1.74-0.028-3.716,0.269-3.716,1.984
	c0,1.049,0.674,1.52,1.482,1.52c1.174,0,1.906-0.725,2.157-1.457c0.067-0.164,0.075-0.346,0.075-0.514L281.017,121.999
	L281.017,121.999z"/>
</svg>
