<?xml version="1.0" encoding="utf-8"?>
<!-- Generator: Adobe Illustrator 16.0.0, SVG Export Plug-In . SVG Version: 6.00 Build 0)  -->
<!DOCTYPE svg PUBLIC "-//W3C//DTD SVG 1.1//EN" "http://www.w3.org/Graphics/SVG/1.1/DTD/svg11.dtd">
<svg version="1.1" id="Layer_1" xmlns="http://www.w3.org/2000/svg" xmlns:xlink="http://www.w3.org/1999/xlink" x="0px" y="0px"
	 width="150px" height="70px" viewBox="0 0 150 70" enable-background="new 0 0 150 70" xml:space="preserve">
<g>
	<path d="M115,2.948c-17.369,0-31.5,14.13-31.5,31.5c0,17.369,14.131,31.5,31.5,31.5s31.5-14.131,31.5-31.5
		C146.5,17.078,132.369,2.948,115,2.948z M115,54.851L99.871,43.325l2.545-3.341L115,49.57l12.581-9.586l2.546,3.341L115,54.851z
		 M115,43.896L99.871,32.372l2.545-3.342L115,38.618l12.581-9.587l2.546,3.343L115,43.896z M115,32.943L99.871,21.418l2.545-3.342
		L115,27.663l12.581-9.585l2.546,3.341L115,32.943z"/>
	<path d="M115-0.552c-19.329,0-35,15.67-35,35c0,19.329,15.671,35,35,35s35-15.671,35-35C150,15.118,134.329-0.552,115-0.552z
		 M115,65.948c-17.369,0-31.5-14.131-31.5-31.5c0-17.37,14.131-31.5,31.5-31.5s31.5,14.13,31.5,31.5
		C146.5,51.817,132.369,65.948,115,65.948z"/>
	<polygon fill="#FFFFFF" points="115,49.57 102.419,39.984 99.871,43.325 115,54.851 130.129,43.325 127.581,39.984 	"/>
	<polygon fill="#FFFFFF" points="115,38.618 102.419,29.03 99.871,32.372 115,43.896 130.129,32.372 127.581,29.03 	"/>
	<polygon fill="#FFFFFF" points="115,27.663 102.419,18.078 99.871,21.418 115,32.943 130.129,21.418 127.581,18.078 	"/>
</g>
<g>
	<path fill="#FFFFFF" d="M35,2.948c-17.369,0-31.5,14.13-31.5,31.5c0,17.369,14.131,31.5,31.5,31.5s31.5-14.131,31.5-31.5
		C66.5,17.078,52.369,2.948,35,2.948z M35,54.851L19.871,43.325l2.546-3.341L35,49.57l12.581-9.586l2.545,3.341L35,54.851z
		 M35,43.896L19.871,32.372l2.546-3.342L35,38.618l12.581-9.587l2.545,3.343L35,43.896z M35,32.943L19.871,21.418l2.546-3.342
		L35,27.663l12.581-9.585l2.545,3.341L35,32.943z"/>
	<path d="M35-0.552c-19.329,0-35,15.67-35,35c0,19.329,15.671,35,35,35s35-15.671,35-35C70,15.118,54.329-0.552,35-0.552z
		 M35,65.948c-17.369,0-31.5-14.131-31.5-31.5c0-17.37,14.131-31.5,31.5-31.5s31.5,14.13,31.5,31.5
		C66.5,51.817,52.369,65.948,35,65.948z"/>
	<polygon points="35,49.57 22.419,39.984 19.871,43.325 35,54.851 50.129,43.325 47.581,39.984 	"/>
	<polygon points="35,38.618 22.419,29.03 19.871,32.372 35,43.896 50.129,32.372 47.581,29.03 	"/>
	<polygon points="35,27.663 22.419,18.078 19.871,21.418 35,32.943 50.129,21.418 47.581,18.078 	"/>
</g>
</svg>
