<?xml version="1.0" encoding="utf-8"?>
<!-- Generator: Adobe Illustrator 16.0.0, SVG Export Plug-In . SVG Version: 6.00 Build 0)  -->
<!DOCTYPE svg PUBLIC "-//W3C//DTD SVG 1.1//EN" "http://www.w3.org/Graphics/SVG/1.1/DTD/svg11.dtd">
<svg version="1.1" id="Layer_1" xmlns="http://www.w3.org/2000/svg" xmlns:xlink="http://www.w3.org/1999/xlink" x="0px" y="0px"
	 width="150px" height="70px" viewBox="-20 -10 150 70" enable-background="new -20 -10 150 70" xml:space="preserve">
<g>
	<path fill="#CC6300" d="M95-6.5C77.631-6.5,63.5,7.63,63.5,25c0,17.369,14.131,31.5,31.5,31.5s31.5-14.131,31.5-31.5
		C126.5,7.63,112.369-6.5,95-6.5z M95,45.402L79.871,33.877l2.545-3.341L95,40.122l12.581-9.586l2.546,3.341L95,45.402z M95,34.448
		L79.871,22.924l2.545-3.342L95,29.17l12.581-9.587l2.546,3.343L95,34.448z M95,23.495L79.871,11.97l2.545-3.342L95,18.215
		l12.581-9.585l2.546,3.341L95,23.495z"/>
	<path fill="#FFFFFF" d="M95-10C75.671-10,60,5.67,60,25c0,19.329,15.671,35,35,35s35-15.671,35-35C130,5.67,114.329-10,95-10z
		 M95,56.5c-17.369,0-31.5-14.131-31.5-31.5C63.5,7.63,77.631-6.5,95-6.5S126.5,7.63,126.5,25C126.5,42.369,112.369,56.5,95,56.5z"
		/>
	<polygon fill="#FFFFFF" points="95,40.122 82.419,30.536 79.871,33.877 95,45.402 110.129,33.877 107.581,30.536 	"/>
	<polygon fill="#FFFFFF" points="95,29.17 82.419,19.582 79.871,22.924 95,34.448 110.129,22.924 107.581,19.582 	"/>
	<polygon fill="#FFFFFF" points="95,18.215 82.419,8.63 79.871,11.97 95,23.495 110.129,11.97 107.581,8.63 	"/>
</g>
<g>
	<path fill="#FD851A" d="M15-6.5C-2.369-6.5-16.5,7.63-16.5,25c0,17.369,14.131,31.5,31.5,31.5S46.5,42.369,46.5,25
		C46.5,7.63,32.369-6.5,15-6.5z M15,45.402L-0.129,33.877l2.546-3.341L15,40.122l12.581-9.586l2.545,3.341L15,45.402z M15,34.448
		L-0.129,22.924l2.546-3.342L15,29.17l12.581-9.587l2.545,3.343L15,34.448z M15,23.495L-0.129,11.97l2.546-3.342L15,18.215
		L27.581,8.63l2.545,3.341L15,23.495z"/>
	<path fill="#FFFFFF" d="M15-10C-4.329-10-20,5.67-20,25c0,19.329,15.671,35,35,35s35-15.671,35-35C50,5.67,34.329-10,15-10z
		 M15,56.5c-17.369,0-31.5-14.131-31.5-31.5C-16.5,7.63-2.369-6.5,15-6.5S46.5,7.63,46.5,25C46.5,42.369,32.369,56.5,15,56.5z"/>
	<polygon fill="#FFFFFF" points="15,40.122 2.419,30.536 -0.129,33.877 15,45.402 30.129,33.877 27.581,30.536 	"/>
	<polygon fill="#FFFFFF" points="15,29.17 2.419,19.582 -0.129,22.924 15,34.448 30.129,22.924 27.581,19.582 	"/>
	<polygon fill="#FFFFFF" points="15,18.215 2.419,8.63 -0.129,11.97 15,23.495 30.129,11.97 27.581,8.63 	"/>
</g>
</svg>
